<?xml version="1.0" standalone="no"?>
<!DOCTYPE svg PUBLIC "-//W3C//DTD SVG 20010904//EN"
 "http://www.w3.org/TR/2001/REC-SVG-20010904/DTD/svg10.dtd">
<svg version="1.0" xmlns="http://www.w3.org/2000/svg"
 width="899.000000pt" height="899.000000pt" viewBox="0 0 899.000000 899.000000"
 preserveAspectRatio="xMidYMid meet">
<metadata>
Created by potrace 1.14, written by Peter Selinger 2001-2017
</metadata>
<g transform="translate(0.000000,899.000000) scale(0.100000,-0.100000)"
fill="#000000" stroke="none">
<path d="M4533 5982 c-10 -7 -17 -17 -16 -22 2 -5 -6 -12 -17 -15 -11 -4 -20
-11 -20 -16 0 -5 -7 -9 -17 -9 -9 0 -13 -3 -10 -7 4 -3 -7 -19 -23 -35 -16
-15 -27 -28 -24 -28 4 0 1 -7 -6 -15 -7 -8 -9 -15 -5 -15 4 0 1 -7 -6 -17 -8
-9 -13 -18 -11 -20 6 -9 1 -24 -7 -19 -5 4 -8 -2 -7 -11 2 -10 -4 -24 -11 -32
-12 -11 -12 -15 -1 -22 8 -6 9 -9 1 -9 -6 0 -14 -19 -18 -42 -4 -24 -10 -47
-13 -53 -4 -5 -8 -19 -10 -30 -1 -11 -4 -27 -5 -35 -1 -8 -6 -21 -11 -29 -5
-8 -3 -16 5 -22 8 -5 9 -9 4 -9 -11 0 -15 -22 -19 -90 -1 -19 -5 -40 -9 -47
-4 -6 -3 -15 3 -18 8 -5 7 -12 -2 -23 -11 -13 -11 -14 2 -7 13 8 13 7 1 -8 -7
-9 -9 -17 -5 -17 5 0 10 -25 10 -55 1 -36 -3 -53 -10 -49 -6 3 -4 0 4 -8 8 -7
15 -26 15 -43 0 -16 3 -35 7 -40 4 -6 8 -28 10 -48 1 -20 6 -37 10 -37 4 0 8
-11 8 -25 0 -14 4 -25 9 -25 5 0 8 -11 6 -25 -1 -14 2 -25 8 -25 6 0 8 -3 4
-6 -3 -4 1 -13 9 -21 8 -9 18 -28 21 -44 3 -16 9 -29 14 -29 5 0 9 -6 9 -12 0
-7 9 -24 20 -38 11 -14 20 -33 20 -43 0 -10 4 -16 9 -12 6 3 15 -5 21 -17 11
-22 10 -22 -4 -4 -9 11 -16 16 -16 12 0 -5 -7 -3 -15 4 -8 7 -12 16 -9 21 3 5
-2 6 -10 3 -9 -3 -16 -1 -16 6 0 6 -4 8 -10 5 -5 -3 -10 -1 -10 4 0 6 -6 11
-14 11 -7 0 -19 7 -26 15 -7 8 -17 12 -23 8 -5 -3 -8 -2 -5 3 3 5 0 15 -8 22
-10 9 -14 10 -14 1 0 -7 -9 -2 -20 11 -11 13 -20 20 -20 16 0 -4 -7 0 -16 8
-8 9 -19 14 -24 11 -4 -3 -10 2 -14 10 -3 8 -12 15 -21 15 -8 0 -15 5 -15 10
0 6 -7 10 -15 10 -8 0 -15 5 -15 10 0 6 -9 10 -20 10 -11 0 -20 5 -20 10 0 6
-7 10 -15 10 -8 0 -15 5 -15 11 0 5 -4 7 -10 4 -5 -3 -10 -1 -10 5 0 7 -6 10
-14 7 -8 -3 -17 1 -20 9 -3 9 -10 12 -16 9 -5 -3 -10 -2 -10 3 0 10 -80 48
-93 44 -5 -1 -6 2 -3 7 4 5 2 12 -4 16 -5 3 -10 0 -10 -7 0 -10 -2 -10 -8 0
-9 14 -80 52 -98 52 -6 0 -17 7 -24 15 -6 8 -15 14 -18 13 -4 -1 -25 7 -47 17
-22 10 -43 18 -47 17 -5 -1 -8 3 -8 9 0 5 -4 7 -10 4 -5 -3 -10 -1 -10 5 0 6
-4 9 -9 5 -5 -3 -15 1 -23 8 -7 8 -18 12 -25 10 -6 -2 -14 1 -18 6 -3 6 -15
11 -26 11 -10 0 -19 5 -19 11 0 5 -4 7 -10 4 -5 -3 -10 -1 -10 5 0 6 -4 9 -9
5 -5 -3 -12 -1 -16 4 -3 6 -12 8 -19 5 -7 -3 -19 2 -26 11 -7 8 -26 15 -42 15
-20 0 -27 4 -22 12 5 7 2 9 -9 5 -8 -3 -21 1 -28 9 -7 9 -21 13 -31 11 -10 -3
-18 -1 -18 5 0 5 -4 7 -9 3 -5 -3 -12 -1 -16 4 -3 6 -12 8 -20 5 -9 -4 -18 1
-21 11 -5 13 -9 14 -15 3 -7 -10 -9 -11 -9 0 0 7 -4 11 -8 8 -5 -3 -21 2 -36
9 -16 8 -32 12 -37 9 -5 -3 -9 -1 -9 4 0 6 -9 8 -20 5 -12 -3 -20 0 -20 8 0 7
-3 10 -6 6 -3 -3 -23 1 -44 8 -21 7 -41 11 -44 8 -3 -4 -6 -1 -6 5 0 6 -7 9
-17 5 -9 -4 -14 -2 -11 3 4 5 -4 10 -15 10 -31 2 -76 11 -115 23 -18 5 -35 10
-37 10 -3 1 -6 1 -7 2 -4 1 -31 7 -58 12 -14 3 -34 9 -44 13 -13 5 -17 4 -12
-4 4 -7 -4 -5 -20 3 -15 8 -31 12 -36 9 -4 -3 -8 0 -8 7 0 8 -4 8 -15 -1 -10
-9 -15 -9 -15 -1 0 6 -3 10 -7 10 -30 -5 -63 2 -57 13 5 7 3 8 -7 2 -20 -12
-39 -14 -39 -3 0 6 -4 8 -9 4 -5 -3 -13 -1 -16 5 -5 8 -11 8 -20 0 -10 -8 -16
-7 -24 7 -6 10 -11 13 -11 7 0 -10 -60 -15 -60 -5 0 3 -23 7 -52 9 -28 1 -59
8 -67 15 -9 7 -12 8 -8 1 4 -7 -4 -11 -23 -10 -17 1 -30 4 -30 7 0 3 -17 5
-37 4 -21 -1 -42 4 -46 9 -6 8 -10 7 -13 -1 -4 -8 -13 -9 -27 -4 -12 4 -34 6
-50 5 -19 -2 -25 1 -20 9 4 8 1 8 -9 -1 -11 -9 -18 -10 -23 -2 -4 6 -12 7 -24
0 -12 -6 -22 -5 -29 2 -9 9 -12 9 -12 -1 0 -11 -3 -11 -15 -1 -11 9 -15 9 -15
1 0 -9 -5 -9 -20 -1 -15 8 -20 8 -20 -2 0 -8 -3 -9 -8 -3 -4 6 -16 11 -27 11
-11 0 -23 -5 -27 -11 -5 -7 -8 -7 -8 0 0 11 -125 14 -136 3 -4 -4 -15 -3 -25
3 -14 7 -19 6 -19 -2 0 -8 -4 -8 -12 -1 -7 5 -22 6 -33 2 -11 -4 -28 -3 -37 2
-10 5 -18 5 -18 0 0 -5 -29 -8 -65 -8 -36 1 -65 -1 -65 -4 0 -3 -24 -6 -53 -7
-112 -5 -170 -13 -185 -25 -10 -9 -13 -9 -9 -1 8 13 -30 12 -52 -2 -10 -6 -12
-4 -6 6 6 11 5 12 -6 2 -7 -7 -30 -13 -51 -13 -21 0 -38 -3 -38 -7 0 -5 -23
-8 -50 -8 -27 0 -50 -4 -50 -9 0 -5 -3 -6 -7 -3 -3 4 -12 2 -20 -4 -10 -9 -13
-8 -13 1 0 10 -3 10 -15 0 -8 -6 -19 -9 -24 -6 -5 4 -12 2 -16 -3 -3 -5 -14
-8 -25 -6 -11 2 -20 0 -20 -5 0 -5 -8 -9 -17 -9 -50 -2 -73 -6 -73 -11 0 -3
-11 -7 -25 -8 -14 -1 -36 -4 -49 -5 -13 -1 -22 -5 -20 -8 4 -6 -69 -23 -93
-22 -7 0 -13 -3 -13 -9 0 -5 -6 -8 -12 -7 -7 1 -26 -3 -42 -10 -16 -6 -31 -9
-34 -6 -3 2 -11 0 -18 -5 -6 -6 -22 -13 -34 -15 -34 -7 -72 -34 -64 -47 4 -6
3 -8 -3 -5 -11 7 -44 -28 -35 -38 4 -4 2 -5 -3 -3 -6 2 -24 -10 -40 -26 -24
-25 -27 -31 -16 -48 10 -16 10 -19 -1 -12 -7 4 -4 -3 7 -16 11 -13 14 -20 6
-15 -16 9 -8 -8 17 -38 8 -9 13 -20 10 -23 -4 -3 0 -17 7 -31 8 -15 11 -31 8
-36 -3 -5 -1 -12 5 -16 7 -4 14 -18 16 -31 2 -14 5 -26 7 -27 1 -2 3 -7 4 -13
1 -5 4 -13 5 -17 1 -5 2 -11 1 -15 0 -5 4 -8 10 -8 5 0 8 -3 5 -8 -2 -4 4 -25
14 -47 10 -22 16 -43 14 -47 -3 -5 0 -8 6 -8 6 0 8 -5 5 -10 -3 -6 1 -13 10
-16 11 -5 13 -10 5 -19 -8 -10 -7 -16 2 -22 8 -4 24 -33 37 -63 13 -30 29 -62
36 -70 7 -8 10 -21 8 -27 -3 -7 2 -16 11 -19 9 -3 16 -16 16 -29 0 -13 7 -26
16 -29 8 -3 12 -10 9 -16 -3 -5 -1 -10 4 -10 6 0 11 -6 11 -13 0 -7 8 -22 18
-33 10 -11 17 -25 14 -32 -2 -6 3 -12 12 -12 9 0 16 -8 16 -20 0 -11 6 -20 13
-20 8 0 7 -4 -3 -10 -13 -8 -12 -10 3 -10 15 0 18 -4 17 -25 0 -3 11 -16 24
-28 14 -13 26 -30 28 -38 2 -7 13 -24 25 -35 12 -12 19 -25 16 -28 -4 -3 -1
-6 5 -6 7 0 12 -7 12 -16 0 -8 5 -12 10 -9 6 3 10 -3 10 -14 0 -13 7 -21 17
-21 9 0 14 -3 10 -6 -3 -3 4 -16 16 -29 12 -12 36 -40 52 -61 17 -21 51 -59
77 -85 26 -26 44 -50 41 -53 -4 -3 -1 -6 6 -6 6 0 33 -20 59 -45 26 -25 42
-45 37 -45 -6 0 1 -6 15 -13 14 -8 24 -18 23 -24 -1 -6 5 -10 15 -9 9 0 16 -5
14 -12 -1 -8 2 -11 8 -7 5 3 10 1 10 -5 0 -6 4 -9 9 -5 5 3 12 -4 16 -15 3
-11 13 -20 21 -20 8 0 14 -4 14 -8 0 -5 12 -14 26 -20 15 -7 22 -17 18 -24 -4
-6 -3 -8 4 -4 6 3 26 -7 44 -23 18 -15 49 -37 68 -47 63 -35 90 -56 83 -67 -3
-5 -1 -7 5 -3 16 9 62 -15 62 -33 0 -14 2 -14 10 -1 7 11 10 11 10 2 0 -7 4
-11 9 -8 5 3 14 -1 21 -9 7 -8 19 -15 26 -15 8 0 14 -5 14 -11 0 -5 5 -7 10
-4 6 3 10 1 10 -5 0 -7 7 -10 15 -6 8 3 15 1 15 -4 0 -6 7 -10 15 -10 8 0 15
-4 15 -10 0 -5 8 -10 19 -10 10 0 30 -9 45 -21 14 -11 30 -18 35 -15 5 4 15 0
23 -7 7 -8 19 -12 26 -9 6 2 12 -2 12 -9 0 -7 3 -10 6 -6 4 3 20 -1 36 -9 16
-8 33 -12 38 -9 6 3 10 1 10 -5 0 -7 7 -10 15 -6 8 3 15 2 15 -3 0 -4 12 -13
26 -19 18 -9 23 -9 18 -1 -3 6 5 3 20 -6 14 -10 26 -14 26 -10 0 4 12 0 26
-10 18 -11 24 -12 18 -4 -7 12 -5 12 9 1 9 -8 21 -11 27 -7 5 3 10 1 10 -5 0
-7 7 -10 15 -6 8 3 15 1 15 -4 0 -5 7 -7 15 -4 9 4 15 0 15 -7 0 -11 3 -11 10
1 7 11 10 11 10 2 0 -7 4 -10 10 -7 5 3 22 -2 37 -12 21 -14 25 -15 19 -3 -7
12 -6 12 4 3 7 -6 19 -9 26 -6 8 3 14 1 14 -3 0 -5 12 -10 28 -11 34 -2 54 -6
70 -16 7 -5 12 -3 12 3 0 6 5 8 13 3 16 -10 33 -13 85 -15 23 -1 42 -5 42 -9
0 -5 10 -6 22 -4 12 3 28 -1 37 -8 12 -9 13 -9 7 1 -4 6 -2 12 3 12 6 0 11 -4
11 -9 0 -5 10 -7 22 -3 16 4 19 2 13 -9 -7 -11 -6 -12 6 -2 14 12 55 10 67 -2
3 -2 11 0 19 6 10 9 13 8 13 0 0 -7 5 -9 13 -4 19 12 37 12 37 1 0 -7 5 -6 14
1 9 8 16 8 20 2 4 -6 18 -6 36 -1 19 5 28 5 25 -1 -9 -13 9 -11 23 3 9 9 12 9
12 -2 0 -13 2 -13 10 0 7 11 10 11 10 2 0 -9 5 -10 19 -2 13 7 22 7 26 0 4 -6
13 -7 23 -2 9 5 37 10 62 11 108 6 136 9 152 16 9 4 22 4 28 0 5 -3 10 -2 10
4 0 6 7 8 15 5 9 -4 15 -1 15 7 0 10 3 10 12 1 7 -7 17 -8 30 -1 10 5 18 7 18
5 0 -3 11 -1 24 4 13 5 44 12 67 15 24 4 48 7 54 8 5 1 16 8 24 15 11 11 15
11 22 0 7 -10 9 -10 9 0 0 6 8 12 18 12 9 0 30 7 45 15 18 9 25 10 20 2 -4 -7
0 -7 10 2 9 7 17 10 17 6 0 -4 7 -2 15 5 8 7 15 9 15 5 0 -4 6 -2 14 4 8 7 24
14 35 16 12 2 35 10 50 18 15 7 35 13 44 11 10 -1 15 1 12 6 -3 5 12 14 32 20
21 6 52 18 68 25 17 8 34 14 38 14 4 0 15 7 23 16 9 8 20 13 25 10 5 -4 9 -2
9 2 0 5 9 14 21 21 12 8 18 9 14 3 -3 -6 9 -1 28 12 18 12 60 36 92 52 33 17
68 38 79 48 11 9 23 17 27 17 10 0 113 70 120 82 3 5 10 9 15 9 5 0 18 7 29
17 11 9 39 30 63 46 23 16 42 33 42 39 0 6 3 8 6 4 4 -3 12 -1 19 6 6 7 34 30
61 52 99 81 132 112 269 250 149 149 195 201 195 221 0 7 6 14 12 16 9 3 5 15
-12 41 -13 19 -27 34 -31 32 -3 -2 -6 2 -6 10 0 8 3 15 7 15 3 0 24 18 47 39
22 22 44 37 48 33 4 -4 5 -2 3 3 -2 6 13 31 33 55 20 25 40 55 43 68 4 12 12
22 18 22 5 0 8 7 4 15 -3 8 2 18 10 23 9 5 15 11 13 13 -1 2 5 20 13 39 19 42
42 102 44 113 1 4 3 10 4 15 1 4 2 10 1 15 0 4 3 7 7 7 8 0 12 14 13 53 0 9 3
17 7 17 4 0 8 8 9 18 1 17 10 57 13 57 1 0 3 28 4 63 2 34 6 65 9 69 4 3 2 14
-4 24 -6 12 -6 19 0 19 5 0 9 9 8 20 -1 11 -5 20 -10 20 -5 0 -5 6 1 13 10 12
9 39 -1 67 -5 14 -7 28 -8 73 0 9 -4 17 -9 17 -5 0 -7 9 -5 20 2 11 0 20 -4
20 -5 0 -11 9 -14 20 -3 11 0 20 6 20 6 0 2 7 -9 15 -14 11 -16 15 -4 15 12 1
12 3 -2 14 -10 7 -18 20 -18 28 0 8 -6 20 -12 27 -11 11 -10 12 2 6 8 -5 3 3
-12 18 -24 22 -34 50 -29 80 0 4 -2 6 -6 6 -21 -3 -34 2 -31 13 2 6 -3 19 -11
29 -55 58 -78 88 -73 93 3 3 0 6 -7 6 -16 0 -42 26 -34 34 4 3 0 6 -8 6 -8 0
-21 9 -29 20 -8 11 -19 20 -25 20 -6 0 -18 8 -27 18 -26 27 -46 42 -58 42 -5
0 -10 5 -10 10 0 6 -7 10 -15 10 -8 0 -15 5 -15 11 0 5 -4 7 -10 4 -5 -3 -10
-1 -10 5 0 6 -4 8 -10 5 -5 -3 -10 -1 -10 4 0 6 -9 11 -20 11 -11 0 -20 5 -20
10 0 6 -9 10 -20 10 -11 0 -20 5 -20 11 0 5 -5 7 -11 4 -5 -4 -19 1 -29 10
-10 9 -24 14 -29 10 -6 -3 -11 -1 -11 5 0 6 -4 8 -10 5 -5 -3 -10 -1 -10 5 0
14 -54 9 -77 -8z m47 -297 c7 -9 19 -14 27 -11 7 3 13 -1 13 -10 0 -8 5 -12
10 -9 6 3 10 1 10 -5 0 -6 4 -9 9 -5 6 3 13 0 18 -7 4 -7 20 -19 35 -27 15 -8
25 -18 22 -23 -3 -4 -1 -8 5 -8 6 0 36 -25 67 -55 32 -30 54 -55 49 -55 -4 0
3 -9 16 -20 13 -10 20 -19 15 -20 -5 0 0 -8 10 -18 31 -28 61 -68 44 -57 -9 6
-7 2 3 -7 11 -10 16 -18 12 -18 -4 0 -1 -7 6 -16 14 -17 40 -80 41 -101 1 -7
6 -13 11 -13 5 0 7 -13 5 -29 -2 -17 -1 -28 4 -25 8 5 12 -11 9 -30 -1 -4 4
-14 10 -22 9 -11 9 -14 0 -14 -8 0 -9 -6 -3 -17 5 -10 8 -27 6 -38 -1 -11 2
-23 9 -27 9 -6 8 -8 -3 -8 -13 0 -13 -1 0 -10 10 -6 11 -10 3 -10 -9 0 -10 -7
-4 -23 5 -13 5 -30 1 -38 -6 -8 -4 -16 3 -21 9 -6 9 -8 0 -8 -6 0 -10 -11 -8
-25 1 -14 -1 -25 -5 -25 -3 0 -5 -13 -2 -30 2 -16 0 -30 -4 -30 -5 0 -10 -16
-11 -36 -1 -20 -7 -42 -13 -49 -7 -8 -9 -19 -6 -24 4 -5 2 -12 -4 -16 -5 -3
-10 -13 -10 -21 0 -9 -7 -22 -15 -30 -14 -14 -19 -11 -16 8 0 5 -2 7 -7 6 -14
-3 -42 14 -36 23 3 5 -4 9 -16 9 -12 0 -18 5 -15 10 3 6 1 10 -4 10 -6 0 -32
20 -58 45 -25 25 -43 45 -39 45 4 0 1 6 -6 14 -7 8 -16 12 -21 9 -4 -2 -11 7
-16 20 -5 13 -17 27 -25 30 -9 4 -16 13 -16 22 0 8 -5 15 -11 15 -5 0 -7 5 -4
10 3 6 -1 10 -9 10 -9 0 -16 8 -16 19 0 10 -7 21 -15 25 -8 3 -12 12 -9 21 3
8 1 15 -5 15 -6 0 -11 9 -11 19 0 10 -8 22 -17 25 -15 6 -15 8 -3 16 12 8 12
10 -1 15 -9 3 -16 12 -17 20 -1 8 -3 22 -4 30 -1 8 -6 15 -11 15 -5 0 -7 7 -4
15 4 8 2 17 -4 21 -6 3 -8 12 -5 20 3 8 2 14 -2 14 -8 0 -13 29 -16 83 0 15
-4 27 -7 27 -3 0 -5 16 -4 36 1 19 -2 37 -7 40 -4 3 -3 14 2 25 6 10 7 19 2
19 -5 0 -6 21 -3 48 4 26 6 54 6 62 0 8 4 18 10 22 6 5 5 8 -3 8 -10 0 -10 5
-2 20 6 11 8 20 4 20 -3 0 0 8 7 17 10 11 10 14 2 9 -14 -8 -18 6 -6 18 6 6 9
20 15 64 2 17 23 15 38 -3z m-2895 -552 c14 7 20 7 23 -1 2 -8 11 -8 30 -1 19
7 28 7 30 -1 3 -8 8 -8 18 1 10 8 18 9 27 0 8 -6 17 -8 20 -4 11 10 57 13 57
3 0 -9 26 -7 36 3 4 4 13 2 21 -4 7 -6 13 -7 13 -2 0 5 7 10 15 10 8 0 15 -4
15 -8 0 -9 20 -7 37 4 6 4 14 3 17 -2 3 -5 19 -7 36 -6 17 1 33 -2 36 -7 4 -6
10 -5 16 3 6 9 11 10 14 3 2 -6 20 -9 39 -8 22 2 35 -1 35 -9 0 -8 3 -8 9 2 5
8 14 10 22 5 7 -4 29 -9 49 -10 105 -6 120 -8 120 -14 0 -3 12 -6 28 -6 74 -1
93 -4 86 -15 -4 -8 0 -8 15 0 15 9 21 9 21 1 0 -7 6 -10 13 -7 6 2 20 0 30 -5
12 -6 17 -5 17 4 0 6 7 3 16 -8 8 -10 12 -13 8 -5 -6 11 -3 13 12 7 10 -4 34
-10 51 -13 21 -4 30 -10 26 -17 -4 -6 0 -5 9 2 10 8 18 9 22 3 4 -6 14 -7 23
-4 9 4 14 2 10 -3 -3 -6 6 -9 21 -9 15 1 32 -1 37 -4 6 -3 19 -7 30 -8 10 -2
23 -9 27 -16 6 -9 8 -9 8 2 0 11 3 11 15 1 9 -7 18 -10 22 -7 3 4 12 -1 20
-11 8 -9 12 -11 8 -4 -3 6 -1 12 4 12 6 0 11 -4 11 -9 0 -5 6 -9 13 -8 29 1
48 -4 44 -10 -3 -5 11 -9 31 -10 20 -1 38 -7 40 -13 2 -5 8 -8 13 -5 4 3 27
-3 49 -14 22 -10 38 -15 34 -10 -5 9 46 -10 56 -21 3 -3 10 -5 15 -6 21 -1 65
-16 65 -23 0 -4 12 -8 27 -9 15 -1 30 -7 33 -13 4 -5 13 -9 21 -7 8 2 13 -2
12 -8 -1 -7 3 -11 10 -11 41 1 57 -4 57 -20 0 -15 2 -16 10 -3 7 11 10 11 10
2 0 -7 4 -11 9 -7 5 3 15 0 23 -7 7 -7 20 -14 28 -16 8 -2 16 -7 18 -12 2 -5
10 -6 18 -3 8 3 14 0 14 -7 0 -6 4 -9 9 -5 5 3 16 -1 24 -9 8 -8 17 -12 21 -9
3 4 6 0 6 -7 0 -7 3 -11 6 -8 7 7 156 -70 166 -86 5 -8 8 -7 8 2 0 10 3 10 14
0 8 -7 12 -15 11 -18 -2 -3 5 -7 16 -7 10 -1 26 -8 33 -16 8 -8 28 -20 45 -27
17 -7 31 -17 31 -22 0 -5 5 -6 10 -3 6 3 10 1 10 -4 0 -6 5 -11 12 -11 6 0 23
-10 36 -22 14 -13 22 -16 17 -8 -4 8 2 5 14 -7 12 -13 28 -23 36 -23 8 0 19
-8 24 -17 6 -10 11 -14 11 -9 0 4 9 -2 21 -15 11 -13 17 -17 13 -9 -4 9 2 6
13 -5 11 -11 30 -27 43 -35 12 -8 29 -21 36 -28 8 -7 14 -11 14 -7 0 4 6 0 14
-7 28 -27 56 -48 64 -48 4 0 14 -9 22 -20 8 -11 20 -20 27 -20 6 0 17 -8 22
-17 6 -10 11 -14 11 -10 0 13 30 -20 30 -33 0 -6 5 -8 10 -5 6 3 10 1 10 -6 0
-7 3 -10 6 -7 3 3 26 -14 52 -38 25 -24 49 -44 53 -44 3 0 11 -12 18 -26 11
-24 7 -29 -57 -93 -91 -89 -319 -266 -353 -273 -6 -2 -22 -13 -35 -25 -13 -13
-30 -23 -39 -23 -8 0 -15 -5 -15 -11 0 -5 -4 -7 -10 -4 -5 3 -10 1 -10 -5 0
-6 -4 -9 -9 -5 -6 3 -14 -3 -20 -12 -6 -10 -11 -14 -11 -10 0 5 -12 0 -27 -11
-16 -11 -38 -23 -50 -26 -13 -4 -23 -12 -23 -17 0 -6 -4 -8 -9 -4 -5 3 -16 -2
-24 -10 -12 -11 -17 -12 -20 -2 -3 7 -6 4 -6 -6 -1 -10 -6 -15 -11 -12 -6 4
-16 3 -23 -2 -23 -18 -139 -63 -147 -58 -5 3 -13 -3 -19 -12 -6 -10 -11 -14
-11 -10 0 5 -6 5 -12 0 -13 -8 -33 -13 -55 -15 -7 -1 -13 -5 -13 -10 0 -5 -8
-8 -17 -7 -10 2 -29 -3 -43 -11 -14 -7 -36 -14 -50 -16 -14 -1 -25 -3 -25 -4
0 -3 -39 -12 -57 -13 -10 -1 -18 -4 -18 -7 0 -3 -8 -6 -17 -7 -24 -2 -82 -12
-113 -20 -14 -3 -31 -5 -37 -4 -7 1 -13 -4 -13 -11 0 -9 -3 -9 -10 2 -5 8 -10
10 -10 5 0 -6 -15 -11 -32 -12 -18 -1 -53 -4 -78 -8 -25 -4 -62 -7 -82 -7 -24
0 -35 -4 -31 -11 4 -6 1 -7 -8 -2 -7 5 -44 10 -82 11 -39 1 -75 8 -84 16 -9 7
-14 8 -10 2 4 -8 -8 -11 -38 -10 -24 0 -42 3 -40 6 3 5 -40 9 -112 10 -18 0
-33 4 -33 8 0 4 -17 8 -38 9 -48 3 -64 7 -81 17 -11 7 -12 6 -6 -5 7 -11 6
-12 -6 -2 -8 6 -30 14 -49 17 -19 3 -46 8 -60 12 -14 3 -33 6 -42 6 -10 -1
-18 3 -18 8 0 5 -8 9 -17 9 -40 2 -69 8 -90 20 -13 6 -23 9 -23 5 0 -3 -6 -1
-13 5 -8 6 -28 12 -45 14 -18 2 -35 7 -40 12 -4 5 -1 5 7 0 9 -5 12 -4 7 3 -4
6 -13 9 -21 5 -9 -3 -22 0 -30 7 -9 7 -18 10 -21 7 -4 -3 -13 1 -21 9 -8 8
-18 12 -23 9 -5 -3 -11 -1 -15 5 -4 6 -11 8 -16 5 -5 -4 -9 -1 -9 4 0 6 -7 11
-15 11 -8 0 -15 5 -15 11 0 5 -4 8 -8 5 -13 -8 -72 25 -65 37 3 5 1 7 -5 4
-15 -10 -43 3 -35 17 3 6 3 8 -1 4 -10 -9 -86 31 -93 48 -3 8 -9 12 -13 9 -5
-3 -21 6 -37 20 -47 42 -53 46 -53 39 0 -4 -14 7 -30 24 -17 18 -33 33 -38 34
-4 2 -6 7 -4 11 1 5 -1 6 -6 3 -4 -3 -32 17 -61 45 -28 27 -57 49 -63 49 -6 0
-9 3 -5 6 3 3 -15 26 -41 51 -26 24 -46 49 -45 54 2 5 -4 9 -12 9 -9 0 -19 8
-22 18 -4 9 -15 24 -25 33 -10 9 -18 22 -18 28 0 7 -4 9 -10 6 -5 -3 -10 -1
-10 4 0 6 -8 19 -17 29 -10 10 -25 29 -33 42 -8 12 -21 29 -28 36 -7 8 -11 14
-7 14 3 0 -3 10 -15 22 -11 12 -20 26 -20 30 0 5 -4 6 -10 3 -5 -3 -10 3 -10
14 0 12 -4 21 -10 21 -5 0 -10 7 -10 15 0 8 -4 15 -10 15 -5 0 -10 6 -10 14 0
8 -5 16 -10 18 -6 2 -12 13 -12 25 -2 14 -7 19 -17 15 -8 -3 -12 -1 -8 5 6 9
-2 21 -43 71 -8 8 -8 12 0 12 6 0 4 7 -4 16 -9 8 -14 20 -10 25 3 5 0 8 -8 7
-7 -2 -12 3 -11 10 2 6 -2 12 -7 12 -6 0 -10 9 -10 20 0 11 -4 20 -10 20 -5 0
-10 7 -10 16 0 9 -5 12 -12 8 -8 -5 -9 -2 -5 9 3 9 -1 24 -11 33 -9 10 -16 20
-16 23 2 10 -20 56 -30 62 -5 4 -5 12 -2 18 4 6 2 11 -5 11 -7 0 -10 3 -6 6 3
4 -1 13 -9 21 -8 8 -12 19 -9 24 4 5 2 9 -3 9 -5 0 -15 18 -22 40 -7 22 -18
40 -23 40 -6 0 -7 3 -4 7 4 3 1 13 -6 21 -10 13 -9 14 3 7 11 -6 10 -3 -3 12
-9 11 -14 23 -10 26 3 4 2 7 -3 7 -5 0 -11 11 -12 24 -1 17 4 25 16 25 35 1
52 5 52 11 0 3 8 6 18 6 9 0 28 4 41 8 18 6 22 5 15 -5 -6 -11 -3 -10 10 1 10
8 25 15 35 17 58 11 100 16 124 17 15 1 27 4 27 8 0 3 11 5 25 3 14 -1 25 1
25 4 0 4 10 7 23 8 12 0 47 3 77 8 30 4 69 9 85 10 17 2 30 4 30 5 0 2 160 12
232 13 35 1 63 5 63 9 0 4 10 4 23 -1 14 -6 30 -5 42 2z"/>
<path d="M7720 5753 c0 -7 -17 -12 -42 -12 -24 0 -58 -1 -75 -4 -19 -2 -33 1
-33 7 0 8 -3 8 -8 1 -4 -6 -14 -10 -22 -10 -8 1 -21 -3 -27 -8 -9 -6 -13 -5
-13 2 0 8 -6 9 -17 4 -10 -5 -31 -8 -46 -7 -15 0 -30 -2 -32 -6 -3 -4 -16 -6
-30 -5 -14 2 -25 -1 -25 -6 0 -6 -8 -5 -20 1 -12 7 -20 7 -20 1 0 -5 -8 -10
-17 -10 -35 0 -80 -8 -93 -16 -9 -6 -11 -4 -5 6 7 11 5 11 -9 -1 -10 -8 -28
-15 -40 -16 -37 -4 -68 -13 -82 -25 -11 -9 -14 -8 -14 2 0 10 -3 10 -12 1 -7
-7 -22 -12 -34 -12 -13 0 -26 -4 -29 -10 -3 -5 -17 -10 -30 -10 -13 0 -26 -4
-30 -10 -3 -5 -12 -7 -20 -3 -8 3 -15 1 -15 -4 0 -5 -6 -10 -12 -11 -36 -3
-54 -8 -59 -15 -3 -5 -12 -10 -20 -12 -8 -1 -24 -6 -36 -10 -12 -4 -25 -7 -28
-6 -3 1 -13 -5 -21 -14 -9 -8 -23 -15 -32 -15 -9 0 -26 -7 -36 -15 -11 -8 -28
-15 -38 -15 -10 0 -18 -4 -18 -9 0 -5 -13 -12 -30 -16 -16 -4 -30 -11 -30 -17
0 -6 -3 -9 -6 -6 -3 4 -36 -11 -74 -33 -38 -21 -74 -40 -82 -41 -7 -2 -19 -11
-26 -20 -7 -10 -19 -18 -27 -18 -7 0 -27 -11 -43 -25 -16 -13 -32 -22 -36 -18
-3 3 -6 1 -6 -5 0 -7 -6 -12 -14 -12 -8 0 -17 -7 -20 -16 -3 -8 -10 -12 -16
-9 -6 3 -13 -1 -16 -9 -3 -9 -15 -16 -27 -16 -11 0 -18 -3 -14 -6 3 -4 -19
-23 -49 -44 -30 -20 -65 -46 -77 -56 -12 -11 -24 -19 -27 -19 -3 0 -19 -13
-36 -30 -16 -16 -52 -48 -79 -69 -68 -54 -385 -372 -385 -386 0 -6 -4 -8 -10
-5 -5 3 -10 2 -10 -3 0 -10 -34 -54 -77 -99 -12 -13 -20 -23 -16 -23 3 0 -9
-14 -26 -32 -17 -17 -31 -35 -31 -40 0 -4 -10 -16 -22 -28 -12 -11 -18 -20
-13 -20 5 0 2 -6 -7 -12 -9 -7 -28 -34 -41 -60 -14 -26 -28 -45 -31 -42 -3 2
-3 1 0 -3 3 -5 9 -8 12 -9 9 -1 62 -23 75 -31 6 -4 7 -1 2 6 -6 10 -3 11 11 3
11 -5 30 -12 44 -13 14 -2 30 -10 36 -18 7 -9 13 -11 18 -3 4 6 17 8 34 3 15
-4 33 -6 41 -3 8 2 11 0 8 -5 -4 -6 10 -10 35 -9 23 1 43 -4 45 -10 2 -7 -11
-10 -36 -10 -22 1 -37 -2 -35 -6 3 -4 -11 -5 -31 -4 -19 2 -35 1 -35 -3 0 -4
-12 -7 -27 -6 -43 1 -86 -15 -110 -43 -13 -14 -23 -21 -24 -16 0 5 -4 -1 -10
-14 -5 -13 -13 -20 -19 -17 -9 6 -15 -8 -11 -29 2 -9 -19 5 -47 31 -11 10 -19
10 -43 -2 -16 -9 -29 -21 -29 -27 0 -6 -2 -9 -5 -6 -6 6 -94 -80 -132 -129
-52 -65 -63 -82 -63 -91 0 -5 -7 -12 -15 -16 -8 -3 -15 -14 -15 -25 0 -11 -5
-23 -10 -26 -6 -4 -8 -11 -5 -16 4 -5 1 -9 -4 -9 -6 0 -11 -9 -11 -20 0 -11
-4 -20 -10 -20 -5 0 -6 -7 -3 -17 5 -11 3 -14 -6 -8 -10 6 -11 3 -2 -13 9 -16
8 -24 -5 -36 -11 -11 -12 -16 -3 -16 7 0 4 -7 -7 -15 -18 -15 -18 -15 0 -8 15
5 17 3 11 -7 -10 -17 -11 -59 -2 -83 4 -10 2 -17 -6 -17 -9 0 -8 -3 1 -9 8 -4
14 -12 14 -17 1 -14 9 -37 19 -58 8 -14 7 -16 -2 -10 -7 4 -3 -6 9 -23 12 -17
22 -36 22 -42 0 -6 4 -11 9 -11 5 0 14 -13 21 -30 7 -16 16 -27 21 -24 5 3 14
-6 21 -20 6 -14 16 -26 22 -26 6 0 22 -13 36 -30 14 -16 31 -30 38 -30 7 0 10
-4 7 -10 -3 -5 1 -10 9 -10 9 0 16 -5 16 -11 0 -5 4 -7 10 -4 6 3 10 2 10 -3
0 -5 12 -14 26 -21 22 -10 31 -9 53 6 14 9 34 27 44 40 10 13 23 20 29 17 6
-4 9 -3 6 2 -4 5 11 27 33 49 21 22 39 47 39 57 0 10 5 18 11 18 5 0 7 4 4 10
-3 5 3 28 14 50 10 22 14 37 8 33 -9 -5 -9 -3 -2 8 6 8 12 28 14 44 2 17 7 35
12 41 5 6 4 15 -3 22 -7 7 -8 12 -2 12 6 0 10 11 10 25 0 14 -5 25 -10 25 -7
0 -8 3 -1 8 11 8 16 62 5 62 -4 0 -7 7 -7 15 0 8 5 15 11 15 7 0 6 4 -2 8 -6
5 -13 27 -15 50 -1 23 -5 42 -9 42 -5 0 -8 7 -8 15 0 8 3 15 6 15 14 0 50 -47
46 -60 -3 -7 0 -10 6 -6 5 3 36 -19 68 -49 32 -30 62 -55 67 -55 4 0 5 -4 2
-10 -3 -5 0 -10 9 -10 8 0 16 -3 18 -8 6 -13 85 -72 98 -72 6 0 9 -4 5 -9 -3
-5 4 -12 15 -16 11 -3 20 -11 20 -16 0 -6 5 -7 10 -4 6 3 10 1 10 -4 0 -6 7
-11 15 -11 8 0 15 -4 15 -10 0 -5 7 -10 15 -10 8 0 15 -5 15 -11 0 -5 5 -7 10
-4 6 3 10 -1 10 -9 0 -9 3 -15 8 -14 14 4 52 -13 52 -23 0 -6 5 -7 10 -4 6 3
10 1 10 -6 0 -7 3 -9 7 -6 3 4 12 -1 20 -11 8 -9 11 -11 8 -4 -6 11 -3 11 16
0 13 -7 27 -17 30 -21 3 -4 16 -9 27 -10 12 -1 22 -5 22 -9 0 -4 9 -8 20 -8
11 0 20 -4 20 -9 0 -5 7 -12 16 -15 8 -3 12 -2 9 4 -9 15 2 12 19 -5 8 -8 26
-16 40 -17 14 -1 26 -6 26 -11 0 -4 8 -7 18 -5 10 2 16 -2 14 -11 -3 -12 0
-12 11 -2 11 8 16 8 19 1 2 -6 14 -12 28 -12 14 -1 28 -6 31 -10 3 -5 24 -9
46 -11 23 -1 39 -5 37 -8 -2 -4 3 -10 12 -13 8 -3 12 -2 9 4 -3 6 1 7 9 4 9
-3 13 -11 9 -18 -4 -7 -1 -7 7 1 11 10 16 9 27 -5 8 -9 12 -11 8 -4 -3 6 -2
12 4 12 5 0 12 -6 14 -12 4 -10 6 -10 6 0 1 10 8 9 31 -3 35 -18 43 -19 34 -2
-6 10 -4 10 7 0 7 -7 25 -13 39 -13 14 0 32 -6 39 -12 11 -11 12 -10 6 1 -6
10 -4 12 6 5 8 -5 22 -9 32 -10 9 -1 20 -3 25 -4 4 -1 26 -2 50 -2 25 1 42 -4
42 -10 0 -9 3 -9 12 0 6 6 18 8 27 4 9 -4 48 -7 86 -7 39 0 73 -4 77 -10 5 -6
8 -5 8 2 0 7 6 10 14 7 18 -7 116 -10 116 -4 0 3 33 5 73 5 39 0 78 4 85 9 9
7 16 5 22 -3 5 -9 9 -10 14 -2 4 6 19 11 34 11 53 -1 118 6 130 14 6 4 17 4
22 1 6 -3 10 -2 10 3 0 5 8 9 18 9 30 -2 91 11 262 54 8 2 21 9 28 14 26 19
100 94 96 98 -2 2 7 10 21 17 27 14 33 30 13 30 -10 0 -10 2 -1 8 9 6 5 13
-12 26 -14 10 -25 25 -25 32 0 8 -6 11 -15 8 -10 -4 -15 0 -15 11 0 9 -4 13
-10 10 -5 -3 -10 2 -10 11 0 10 -3 14 -7 11 -3 -4 -13 2 -20 13 -8 11 -19 18
-24 15 -5 -4 -9 -1 -9 5 0 15 -26 41 -34 33 -3 -4 -6 1 -6 11 0 9 -4 14 -10
11 -5 -3 -10 -1 -10 4 0 6 -7 11 -15 11 -8 0 -19 9 -25 20 -6 11 -16 20 -22
20 -6 0 -19 10 -29 22 -11 11 -19 18 -19 14 0 -4 -7 -1 -15 6 -33 30 -45 38
-55 38 -5 0 -10 5 -10 10 0 6 -7 10 -15 10 -8 0 -15 4 -15 8 0 4 -20 18 -46
30 -25 12 -42 26 -39 32 3 5 -4 7 -15 5 -13 -2 -20 1 -20 11 0 8 -4 12 -10 9
-5 -3 -10 -1 -10 5 0 6 -4 8 -10 5 -5 -3 -10 -1 -10 4 0 6 -7 11 -15 11 -8 0
-15 5 -15 10 0 6 -3 9 -7 8 -14 -3 -63 25 -63 36 0 6 -5 4 -10 -4 -8 -13 -10
-13 -10 2 0 11 -5 15 -15 12 -8 -4 -15 -1 -15 5 0 6 -9 11 -20 11 -11 0 -20 5
-20 10 0 6 -3 9 -7 8 -5 -1 -28 8 -52 20 -24 12 -48 19 -54 15 -6 -3 -7 -1 -3
5 6 11 -6 16 -26 13 -5 0 -8 3 -8 9 0 5 -7 6 -17 3 -11 -4 -14 -3 -9 5 5 8 -1
12 -18 12 -14 0 -26 4 -26 9 0 5 -8 8 -17 7 -10 -2 -33 5 -50 15 -23 13 -33
15 -33 6 0 -6 -5 -4 -11 6 -5 9 -21 17 -34 17 -14 0 -25 6 -25 13 0 9 -3 8 -9
-2 -6 -9 -11 -10 -15 -2 -4 6 -16 11 -27 11 -10 0 -19 5 -19 11 0 8 -4 8 -14
0 -11 -10 -17 -8 -25 6 -7 12 -10 13 -11 4 0 -10 -3 -11 -13 -2 -8 6 -17 8
-20 4 -4 -3 -7 0 -7 7 0 7 -2 11 -6 8 -3 -3 -22 -1 -42 4 -32 8 -45 10 -85 17
-5 0 -5 7 -1 14 6 9 5 9 -7 0 -17 -13 -61 -14 -52 0 3 4 -3 7 -12 5 -10 -2
-20 2 -22 8 -2 7 11 10 37 10 22 -1 40 2 40 6 0 4 7 5 15 2 8 -4 22 -1 30 6 8
7 15 8 15 3 0 -5 9 -9 20 -9 11 0 20 4 20 9 0 5 6 4 14 -2 10 -9 16 -9 21 -1
4 6 14 10 23 9 10 -1 19 0 22 1 11 4 47 9 78 12 18 1 36 6 38 10 3 5 10 6 15
2 5 -3 16 0 24 6 12 10 15 10 15 0 0 -9 3 -10 13 -1 8 6 17 8 20 4 4 -3 7 -2
7 4 0 6 11 8 24 6 13 -3 27 0 30 6 4 5 13 8 21 4 8 -3 15 -1 15 4 0 5 12 10
28 11 50 3 62 5 62 13 0 4 8 6 18 4 9 -1 23 2 29 7 7 6 19 8 27 5 8 -3 22 1
33 8 10 8 30 15 45 15 15 0 33 6 40 13 7 6 20 13 28 13 31 3 55 9 61 17 3 4
16 9 28 12 13 2 30 10 39 17 13 11 14 11 7 -2 -8 -13 -7 -13 8 -1 9 7 17 10
17 5 0 -5 5 -1 11 9 5 9 20 17 32 18 12 0 44 11 72 24 27 13 53 21 57 19 5 -3
8 -1 8 4 0 6 11 13 25 16 14 4 25 11 25 16 0 5 7 7 15 4 8 -4 17 1 21 10 3 9
10 14 14 11 5 -3 29 6 53 19 24 14 47 22 51 19 3 -4 6 0 6 9 0 8 6 15 13 15 7
0 41 16 76 36 34 21 66 37 72 37 5 0 9 3 9 8 0 4 13 13 29 20 16 7 39 22 51
32 13 11 29 20 37 20 7 0 13 4 13 8 0 5 18 18 40 31 22 12 40 26 40 32 0 5 3
8 8 7 8 -3 123 79 134 96 5 7 8 7 8 1 0 -6 3 -6 8 1 4 6 39 37 77 69 134 112
213 185 334 306 152 153 221 231 221 251 0 11 -4 17 -9 14 -4 -3 -16 1 -27 8
-10 8 -24 12 -31 9 -7 -3 -13 0 -13 6 0 6 -7 8 -15 5 -8 -4 -15 -1 -15 6 0 7
-7 10 -15 6 -8 -3 -18 0 -22 7 -5 7 -14 12 -20 13 -7 1 -25 2 -39 3 -14 0 -23
5 -20 9 2 4 -7 9 -22 10 -15 1 -29 7 -30 13 -3 6 -9 6 -18 -2 -10 -8 -14 -8
-14 0 0 6 -9 11 -19 11 -11 0 -23 5 -27 11 -4 8 -9 7 -15 -2 -7 -11 -9 -11 -9
-1 0 7 -4 10 -10 7 -5 -3 -10 -2 -10 4 0 6 -7 8 -16 4 -9 -3 -20 0 -25 8 -7
12 -9 12 -9 -1 0 -11 -2 -12 -8 -3 -4 7 -22 13 -40 15 -18 1 -32 7 -32 13 0 5
-5 3 -10 -5 -5 -8 -10 -10 -10 -4 0 10 -50 21 -110 26 -8 1 -18 6 -22 12 -5 7
-8 6 -8 -3 0 -11 -3 -11 -15 -1 -8 7 -22 10 -30 6 -8 -3 -15 -1 -15 3 0 5 -11
8 -25 6 -14 -1 -28 2 -31 7 -4 6 -10 5 -15 -3 -7 -12 -9 -12 -9 0 0 11 -3 11
-15 1 -11 -9 -15 -10 -15 -1 0 8 -8 10 -20 6 -11 -3 -20 -2 -20 3 0 11 -19 10
-37 -1 -7 -5 -13 -4 -13 1 0 9 -9 10 -180 13 -63 1 -108 6 -112 13 -6 8 -8 8
-8 -1z m-272 -281 c9 9 12 9 12 0 0 -9 5 -10 19 -2 14 7 22 7 26 0 4 -6 12 -7
18 -3 19 12 77 12 77 -1 0 -8 3 -8 8 0 10 15 124 15 115 0 -4 -7 -1 -6 8 1 18
14 70 13 81 -2 5 -7 8 -6 8 0 0 11 46 13 56 2 4 -3 16 -2 27 4 15 9 18 8 12
-2 -6 -9 -2 -11 13 -7 13 4 22 1 22 -5 0 -7 5 -5 10 3 5 8 10 10 10 4 0 -5 18
-10 40 -9 22 1 40 -2 40 -5 0 -4 14 -6 30 -5 17 1 30 -3 30 -9 0 -6 5 -4 10 4
5 8 10 10 10 4 0 -6 11 -10 25 -9 14 2 25 0 25 -5 0 -5 8 -7 18 -5 9 1 23 -2
30 -8 6 -5 12 -6 12 -2 0 4 8 1 17 -6 14 -12 16 -12 8 0 -5 10 -4 12 4 7 6 -4
25 -9 42 -11 17 -3 38 -10 47 -17 13 -11 14 -11 7 1 -6 11 -5 12 6 5 16 -10
44 -16 76 -18 11 -1 19 -4 16 -8 -2 -5 7 -8 21 -8 14 0 26 -6 27 -12 0 -9 2
-9 6 1 3 8 8 10 12 3 3 -6 19 -13 34 -16 66 -12 63 -30 -20 -104 -62 -55 -123
-106 -148 -124 -14 -11 -98 -76 -112 -88 -10 -8 -183 -125 -249 -168 -10 -6
-35 -20 -54 -30 -19 -9 -37 -20 -40 -23 -3 -4 -30 -18 -60 -33 -30 -15 -62
-31 -70 -36 -8 -5 -30 -15 -47 -22 -18 -7 -33 -16 -33 -20 0 -5 -3 -7 -7 -6
-5 1 -18 -3 -29 -10 -12 -6 -24 -8 -28 -5 -3 3 -6 1 -6 -6 0 -7 -4 -9 -10 -6
-5 3 -10 1 -10 -5 0 -7 -7 -10 -15 -6 -8 3 -15 1 -15 -4 0 -6 -4 -10 -9 -10
-5 0 -20 -4 -33 -9 -13 -5 -27 -10 -33 -11 -5 -1 -19 -7 -30 -13 -33 -19 -88
-36 -97 -31 -4 3 -8 1 -8 -5 0 -5 -15 -13 -32 -16 -18 -4 -42 -15 -52 -24 -11
-9 -16 -10 -12 -3 4 6 2 12 -3 12 -6 0 -11 -4 -11 -8 0 -5 -7 -9 -15 -10 -8
-1 -22 -3 -30 -4 -8 -1 -15 -4 -15 -8 0 -4 -10 -6 -22 -5 -13 1 -25 -1 -28 -6
-3 -4 -19 -9 -35 -12 -17 -2 -37 -7 -46 -11 -9 -4 -27 -8 -40 -10 -13 -1 -32
-6 -42 -10 -9 -5 -26 -6 -37 -3 -11 3 -23 1 -26 -4 -3 -5 -10 -7 -15 -4 -5 4
-9 1 -9 -6 0 -7 -3 -10 -6 -6 -3 3 -17 2 -30 -3 -16 -6 -24 -6 -24 1 0 6 -7 3
-16 -6 -14 -13 -19 -14 -25 -3 -6 9 -11 10 -16 2 -5 -6 -15 -11 -23 -12 -8 0
-29 -2 -47 -3 -20 -1 -30 -6 -26 -13 3 -6 0 -6 -7 1 -7 7 -20 9 -29 5 -9 -4
-25 -7 -36 -7 -11 0 -23 -4 -27 -10 -5 -6 -8 -5 -8 3 0 9 -5 10 -17 4 -10 -5
-24 -7 -31 -5 -7 3 -19 0 -26 -6 -7 -6 -16 -7 -20 -3 -11 10 -30 9 -38 -3 -5
-6 -8 -5 -8 4 0 11 -3 11 -15 1 -12 -10 -15 -10 -15 0 0 8 -4 9 -12 3 -7 -5
-38 -9 -68 -8 -30 0 -58 -4 -62 -10 -5 -7 -8 -7 -8 1 0 5 -15 9 -32 8 -18 -1
-36 3 -40 9 -6 9 -8 9 -8 0 0 -8 -30 -11 -110 -9 -61 2 -113 6 -117 9 -3 4
-12 2 -20 -4 -10 -9 -13 -8 -13 2 0 11 -2 11 -10 -1 -5 -8 -10 -10 -10 -4 0 7
-13 10 -30 9 -16 -1 -30 2 -30 8 0 7 -4 7 -12 -1 -9 -9 -16 -8 -32 6 -11 9
-16 12 -13 5 5 -8 -4 -11 -33 -10 -22 1 -40 6 -40 11 0 5 -6 3 -14 -3 -10 -8
-16 -8 -24 2 -6 7 -29 12 -51 11 -23 0 -41 3 -41 9 0 5 -9 7 -20 4 -11 -3 -20
-1 -20 5 0 5 -4 6 -10 3 -5 -3 -10 -1 -10 5 0 6 -5 8 -12 4 -19 -12 46 77 104
141 70 79 131 138 207 205 35 30 75 66 90 79 14 13 43 35 64 49 20 13 37 29
37 34 0 5 4 7 8 4 4 -2 25 11 47 30 22 19 45 34 52 34 7 0 13 4 13 9 0 5 14
14 30 21 17 7 30 17 30 22 0 5 4 7 9 4 5 -4 11 -3 13 2 3 9 66 46 166 99 37
19 72 39 78 44 6 5 14 6 17 2 4 -3 7 -1 7 6 0 7 5 9 10 6 6 -3 10 -1 10 5 0 6
4 9 9 5 5 -3 13 0 16 6 4 5 13 8 21 5 8 -3 14 -1 14 4 0 8 33 23 52 25 4 0 13
6 20 13 6 6 19 12 28 12 9 0 21 5 28 12 7 7 12 9 12 6 0 -4 29 4 64 16 36 13
67 21 70 18 3 -3 6 -1 6 5 0 5 6 10 13 11 38 5 83 15 92 22 10 8 101 25 123
23 6 0 12 3 12 8 0 4 9 6 20 4 11 -2 20 0 20 4 0 4 14 7 30 6 17 -1 30 2 30 6
0 5 13 7 30 5 16 -2 32 -1 36 3 3 3 22 7 42 8 20 1 49 3 64 4 15 1 25 6 21 12
-3 5 3 4 14 -2 14 -7 23 -7 31 1z m-1858 -1322 c0 -5 -2 -10 -4 -10 -3 0 -8 5
-11 10 -3 6 -1 10 4 10 6 0 11 -4 11 -10z m780 -26 c0 -8 -5 -12 -10 -9 -6 4
-8 11 -5 16 9 14 15 11 15 -7z m-693 -237 c6 -4 14 -3 17 2 7 11 85 9 103 -2
6 -4 14 -3 17 2 7 11 85 9 103 -2 6 -4 13 -2 15 4 2 7 12 7 29 0 19 -7 30 -6
38 2 8 8 11 8 11 -2 0 -7 8 -11 18 -9 9 1 23 -1 30 -5 7 -5 12 -3 12 4 0 7 4
8 13 2 6 -5 22 -8 35 -7 12 0 22 -4 22 -10 0 -6 5 -4 10 4 5 8 10 10 10 3 0
-6 11 -10 25 -9 14 2 36 -3 50 -10 16 -8 23 -9 19 -2 -5 8 -1 9 12 4 10 -5 38
-11 61 -13 24 -3 40 -9 38 -14 -3 -4 4 -6 17 -4 12 3 26 -1 30 -8 6 -9 8 -8 8
2 0 11 4 9 15 -5 8 -11 14 -14 15 -6 0 9 5 10 19 2 11 -5 31 -11 45 -12 15 -1
26 -6 26 -11 0 -5 7 -7 15 -3 8 3 15 1 15 -3 0 -5 8 -8 18 -7 9 2 20 -1 23 -5
3 -5 17 -10 32 -11 15 -1 27 -6 27 -10 0 -4 11 -8 24 -8 14 0 28 -4 31 -10 3
-5 15 -10 26 -10 10 0 19 -5 19 -11 0 -6 9 -9 20 -6 11 3 20 2 20 -3 0 -4 11
-11 25 -14 14 -4 25 -11 25 -16 0 -5 7 -7 15 -4 8 4 15 1 15 -6 0 -7 7 -10 15
-6 9 3 18 -1 21 -9 3 -7 12 -11 20 -8 8 3 14 0 14 -7 0 -6 5 -10 12 -8 11 4
62 -24 96 -52 6 -6 12 -8 12 -3 0 4 7 -2 16 -13 8 -10 12 -13 9 -6 -6 11 -3
11 16 0 13 -7 30 -20 37 -28 12 -13 13 -13 7 0 -4 10 -2 9 8 -2 8 -10 19 -18
26 -18 6 0 11 -5 11 -11 0 -5 4 -8 9 -4 5 3 16 -2 24 -10 9 -8 21 -15 27 -15
6 0 8 -4 5 -10 -3 -5 3 -10 14 -10 12 0 21 -4 21 -10 0 -5 5 -10 11 -10 6 0
17 -7 26 -15 8 -8 19 -12 25 -9 6 4 8 2 4 -4 -3 -6 3 -13 14 -17 11 -4 18 -11
15 -16 -3 -5 2 -6 11 -2 12 4 15 3 10 -5 -4 -7 -1 -12 8 -12 9 0 16 -4 16 -10
0 -5 7 -10 15 -10 8 0 15 -7 15 -16 0 -9 5 -12 12 -8 7 4 8 3 4 -5 -4 -6 -16
-9 -27 -6 -12 4 -19 2 -19 -7 0 -10 -3 -9 -10 2 -5 8 -10 10 -10 4 0 -7 -13
-10 -30 -8 -16 2 -30 -1 -30 -7 0 -6 -7 -6 -17 -1 -16 7 -88 9 -103 2 -3 -1
-9 -1 -15 0 -34 8 -104 6 -98 -3 4 -6 1 -7 -7 -2 -20 12 -110 13 -110 1 0 -7
-3 -7 -8 0 -9 15 -64 15 -55 0 5 -8 3 -8 -8 0 -8 6 -24 10 -36 9 -13 -1 -23 1
-23 4 0 6 -42 10 -108 12 -18 0 -31 3 -28 7 2 4 -10 6 -27 6 -18 -1 -36 2 -42
6 -10 8 -18 9 -72 13 -18 1 -33 5 -33 8 0 3 -6 6 -12 6 -45 3 -68 8 -68 16 0
4 -4 6 -9 2 -5 -3 -12 -1 -16 5 -3 5 -11 10 -16 10 -6 0 -7 -4 -4 -10 9 -15
-2 -12 -19 5 -8 8 -26 16 -40 17 -14 1 -26 6 -26 10 0 4 -6 5 -13 2 -8 -3 -19
2 -26 10 -7 8 -19 12 -27 9 -8 -3 -14 0 -14 5 0 6 -9 9 -20 7 -11 -2 -20 0
-20 6 0 5 -7 9 -15 9 -8 0 -15 5 -15 11 0 5 -5 7 -10 4 -6 -4 -17 -1 -25 5 -8
7 -15 9 -15 6 0 -4 -7 0 -16 8 -8 9 -20 14 -25 11 -5 -4 -9 -1 -9 5 0 6 -4 9
-9 5 -5 -3 -12 -1 -16 5 -3 5 -23 17 -43 27 -20 9 -39 19 -42 22 -3 4 -16 15
-30 26 l-25 20 15 -20 c14 -19 13 -19 -10 1 -14 12 -33 24 -43 27 -11 4 -15
12 -11 18 4 8 3 9 -4 5 -7 -4 -12 -2 -12 4 0 6 -4 9 -9 5 -5 -3 -16 4 -24 15
-7 11 -17 17 -20 13 -4 -3 -7 -1 -7 6 0 7 -4 9 -10 6 -5 -3 -10 1 -10 10 0 9
-4 14 -8 11 -5 -3 -15 3 -24 12 -26 29 -56 51 -62 45 -3 -4 -6 0 -6 9 0 8 -12
20 -26 26 -14 7 -22 17 -19 22 3 6 0 10 -8 10 -8 0 -18 7 -21 16 -3 8 -10 13
-14 10 -5 -3 -16 8 -25 23 l-16 28 42 -1 c23 -1 47 -4 54 -9z m-636 -194 c0
-5 3 -17 6 -28 2 -11 5 -28 6 -37 1 -9 5 -14 9 -12 4 3 8 -4 8 -16 0 -11 7
-32 16 -45 13 -20 14 -25 3 -25 -12 0 -12 -2 0 -9 7 -5 10 -14 7 -20 -4 -6 -4
-11 1 -11 4 0 8 -20 9 -45 0 -25 0 -45 -1 -45 -2 0 -15 19 -30 41 -15 23 -21
38 -13 34 7 -5 2 4 -11 18 -14 15 -21 30 -18 34 4 3 -1 15 -10 26 -10 11 -12
17 -4 12 10 -6 11 -2 5 16 -8 25 -13 99 -7 112 2 4 8 7 14 7 5 0 9 -3 10 -7z
m2819 -487 c0 -2 -8 -10 -17 -17 -16 -13 -17 -12 -4 4 13 16 21 21 21 13z"/>
</g>
</svg>
